Coordinates
version=1
nRows=11
nColumns=63
inDegrees=yes

Units are S.I. units (second, meters, Newtons, ...)
If the header above contains a line with 'inDegrees', this indicates whether rotational values are in degrees (yes) or radians (no).

endheader
time	pelvis_tilt	pelvis_list	pelvis_rotation	pelvis_tx	pelvis_ty	pelvis_tz	hip_flexion_r	hip_adduction_r	hip_rotation_r	knee_angle_r	knee_angle_r_beta	ankle_angle_r	subtalar_angle_r	mtp_angle_r	hip_flexion_l	hip_adduction_l	hip_rotation_l	knee_angle_l	knee_angle_l_beta	ankle_angle_l	subtalar_angle_l	mtp_angle_l	L5_S1_Flex_Ext	L5_S1_Lat_Bending	L5_S1_axial_rotation	L4_L5_Flex_Ext	L4_L5_Lat_Bending	L4_L5_axial_rotation	L3_L4_Flex_Ext	L3_L4_Lat_Bending	L3_L4_axial_rotation	L2_L3_Flex_Ext	L2_L3_Lat_Bending	L2_L3_axial_rotation	L1_L2_Flex_Ext	L1_L2_Lat_Bending	L1_L2_axial_rotation	L1_T12_Flex_Ext	L1_T12_Lat_Bending	L1_T12_axial_rotation	Abs_r3	Abs_r2	Abs_r1	Abs_t1	Abs_t2	neck_flexion	neck_bending	neck_rotation	arm_flex_r	arm_add_r	arm_rot_r	elbow_flex_r	pro_sup_r	wrist_flex_r	wrist_dev_r	arm_flex_l	arm_add_l	arm_rot_l	elbow_flex_l	pro_sup_l	wrist_flex_l	wrist_dev_l
2.040000	0.174619	22.456924	105.045124	0.214459	0.787789	0.731174	-19.564055	4.616319	3.540638	6.292999	0.109834	16.711036	-16.625019	0.000000	-21.656256	-2.729748	4.991991	0.367360	0.006412	25.768205	-2.221625	0.000000	-0.745325	0.329106	5.120739	-1.384144	0.437712	5.440785	-1.224495	0.800189	5.440785	-0.851832	0.800189	4.480647	-0.692109	0.671114	4.160600	-0.425879	0.509786	3.840554	-5.323785	3.722918	28.480014	0.000000	0.000000	-5.396961	2.501463	-39.790818	-207.982772	-123.675127	-257.285601	109.794485	88.193313	-24.130575	1.252088	93.520149	13.855939	176.333063	0.052367	0.598658	-69.888537	-24.359838
2.060000	0.573898	22.752580	104.875171	0.212931	0.788270	0.732776	-19.874123	4.953670	3.574824	5.879415	0.102615	15.994269	-16.644892	0.000000	-21.820294	-3.046167	5.141216	0.350147	0.006111	25.718419	-2.691065	0.000000	-0.757478	0.444571	5.158643	-1.406712	0.591279	5.481058	-1.244460	1.080930	5.481058	-0.865721	1.080930	4.513813	-0.703394	0.906569	4.191397	-0.432823	0.688640	3.868982	-5.410589	5.029075	28.690825	0.000000	0.000000	-5.730967	1.419767	-38.739714	-208.379031	-126.118431	-256.611059	110.471450	87.608701	-23.733298	0.060385	90.615187	13.772876	175.907408	0.052183	0.600715	-69.886803	-24.346132
2.080000	0.967035	22.953295	104.719045	0.211395	0.788665	0.734045	-20.090638	5.267954	3.553121	5.499051	0.095977	15.332670	-16.602645	0.000000	-21.897110	-3.338996	5.330006	0.332031	0.005795	25.671396	-3.193970	0.000000	-0.764611	0.552584	5.184313	-1.419959	0.734937	5.508333	-1.256180	1.343553	5.508333	-0.873874	1.343553	4.536274	-0.710018	1.126830	4.212255	-0.436899	0.855953	3.888235	-5.461541	6.250943	28.833595	0.000000	0.000000	-5.900162	0.245390	-37.648922	-208.648483	-128.571157	-255.779700	110.943512	86.808513	-23.083746	-1.509465	87.837998	13.625852	175.615632	0.052071	0.613594	-69.883582	-24.339880
2.100000	1.351910	23.054204	104.598116	0.209838	0.788951	0.735048	-20.200631	5.559247	3.447963	5.156252	0.089994	14.762201	-16.471497	0.000000	-21.873452	-3.610762	5.562787	0.316580	0.005525	25.627665	-3.720221	0.000000	-0.768488	0.653045	5.199013	-1.427159	0.868549	5.523951	-1.262549	1.587812	5.523951	-0.878305	1.587812	4.549136	-0.713618	1.331688	4.224198	-0.439114	1.011566	3.899259	-5.489234	7.387370	28.915348	0.000000	0.000000	-5.883351	-1.013836	-36.481192	-209.012282	-131.065883	-254.946244	111.215037	85.992247	-22.170733	-3.167927	85.165301	13.432775	175.496702	0.051972	0.644215	-69.879476	-24.346595
2.120000	1.734524	23.045791	104.506968	0.208250	0.789111	0.735842	-20.184403	5.826003	3.261654	4.859225	0.084809	14.311240	-16.225499	0.000000	-21.735101	-3.862120	5.830235	0.307114	0.005360	25.583830	-4.269748	0.000000	-0.769050	0.746376	5.202107	-1.428202	0.992681	5.527239	-1.263472	1.814740	5.527239	-0.878947	1.814740	4.551844	-0.714140	1.522011	4.226712	-0.439435	1.156137	3.901580	-5.493246	8.443159	28.932560	0.000000	0.000000	-5.670789	-2.369238	-35.194547	-209.506262	-133.587740	-254.076825	111.263266	85.249644	-21.002581	-4.638651	82.554046	13.208748	175.556849	0.051870	0.690901	-69.875041	-24.373362
2.140000	2.121184	22.909754	104.418765	0.206655	0.789126	0.736439	-20.006623	6.061313	3.035541	4.636709	0.080926	14.000312	-15.865824	0.000000	-21.465938	-4.087231	6.108570	0.303858	0.005303	25.533323	-4.851303	0.000000	-0.763504	0.831907	5.190742	-1.417904	1.106437	5.515163	-1.254361	2.022699	5.515163	-0.872609	2.022699	4.541899	-0.708990	1.696425	4.217478	-0.436266	1.288624	3.893056	-5.453635	9.410700	28.869348	0.000000	0.000000	-5.259061	-3.823475	-33.742844	-210.026838	-136.095676	-253.009412	111.018388	84.617316	-19.625051	-5.703494	79.936742	12.960084	175.744205	0.051789	0.742465	-69.870614	-24.435407
2.160000	2.494432	22.656468	104.357978	0.205096	0.788974	0.736902	-19.667882	6.261256	2.746280	4.519096	0.078873	13.862466	-15.386964	0.000000	-21.074094	-4.284213	6.391114	0.310187	0.005414	25.494543	-5.413126	0.000000	-0.756149	0.906693	5.139581	-1.404245	1.205901	5.460805	-1.242277	2.204533	5.460805	-0.864203	2.204533	4.497133	-0.702160	1.848928	4.175909	-0.432064	1.404467	3.854686	-5.401097	10.256691	28.584806	0.000000	0.000000	-4.576324	-5.298396	-31.965507	-210.054584	-138.542474	-251.226153	110.364269	84.121592	-18.076311	-6.173583	77.252744	12.650067	175.918758	0.052080	0.793658	-69.865136	-24.564095
2.180000	2.909577	22.276080	104.271005	0.203450	0.788605	0.737111	-19.165664	6.456958	2.471895	4.471842	0.078048	13.841214	-14.838642	0.000000	-20.551248	-4.480339	6.673350	0.322654	0.005631	25.487410	-6.021049	0.000000	-0.738899	0.977836	5.053806	-1.372210	1.300522	5.369669	-1.213938	2.377511	5.369669	-0.844488	2.377511	4.422080	-0.686142	1.994003	4.106217	-0.422207	1.514668	3.790354	-5.277885	11.061477	28.107752	0.000000	0.000000	-3.649340	-6.801713	-29.849517	-210.006900	-140.817189	-248.993364	109.258477	83.789855	-16.629490	-5.958468	74.393609	12.336820	175.929144	0.053192	0.840629	-69.856149	-24.675087
2.200000	3.339667	21.765421	104.180709	0.201788	0.787988	0.737089	-18.498093	6.628873	2.158306	4.510112	0.078716	13.964290	-14.183017	0.000000	-19.895266	-4.659265	6.943228	0.342029	0.005970	25.511396	-6.615357	0.000000	-0.712524	1.040393	4.911385	-1.323228	1.383722	5.218346	-1.170606	2.529611	5.218346	-0.814344	2.529611	4.297462	-0.661650	2.121569	3.990500	-0.407136	1.611568	3.683539	-5.089487	11.769129	27.315649	0.000000	0.000000	-2.486521	-8.205008	-27.329208	-209.486028	-142.890590	-245.947774	107.643986	83.640443	-15.284359	-5.046041	71.345038	11.981207	175.771572	0.055394	0.881424	-69.841862	-24.689002
2.220000	3.801702	21.156749	104.075502	0.200065	0.787122	0.736913	-17.687244	6.797759	1.873369	4.643678	0.081047	14.184195	-13.534844	0.000000	-19.134926	-4.837565	7.233933	0.365323	0.006376	25.572088	-7.244095	0.000000	-0.679627	1.097909	4.721012	-1.262135	1.460219	5.016075	-1.116559	2.669456	5.016075	-0.776746	2.669456	4.130885	-0.631102	2.238856	3.835822	-0.388339	1.700661	3.540759	-4.854507	12.419765	26.256850	0.000000	0.000000	-1.098037	-9.462209	-24.540926	-208.698042	-144.714879	-242.328283	105.608001	83.673262	-14.164538	-3.468020	68.139141	11.625547	175.548924	0.058515	0.917808	-69.823572	-24.479500
2.240000	4.251791	20.469462	103.991396	0.198394	0.786045	0.736678	-16.752916	6.940096	1.589965	4.887922	0.085310	14.517945	-12.915437	0.000000	-18.288154	-4.993461	7.545600	0.395206	0.006898	25.650548	-7.842174	0.000000	-0.645340	1.144354	4.479223	-1.198461	1.521990	4.759174	-1.060229	2.782381	4.759174	-0.737559	2.782381	3.919320	-0.599263	2.333566	3.639368	-0.368747	1.772604	3.359417	-4.609598	12.945156	24.912092	0.000000	0.000000	0.493873	-10.484686	-21.585034	-207.520927	-146.310998	-238.107541	103.293769	83.893194	-13.305062	-1.219359	64.839296	11.236482	175.310202	0.062399	0.945568	-69.802548	-24.195644
